/* XPM */
static char *b759127722cb4788a3a91ee3f84a83c8qUCd8TZfzZvJ42hd[] = {
/* columns rows colors chars-per-pixel */
"80 80 5 1 ",
"  c #583821",
". c #76563D",
"X c #986C42",
"o c #BB8A62",
"O c #8D8986",
/* pixels */
"oooooXXXXXXXXXX..........oooooXXXXXXXXXX..........     ..........ooooo.....ooooo",
"oooooXXXXXXXXXX..........oooooXXXXXXXXXX..........     ..........ooooo.....ooooo",
"oooooXXXXXXXXXX..........oooooXXXXXXXXXX..........     ..........ooooo.....ooooo",
"oooooXXXXXXXXXX..........oooooXXXXXXXXXX..........     ..........ooooo.....ooooo",
"oooooXXXXXXXXXX..........oooooXXXXXXXXXX..........     ..........ooooo.....ooooo",
".....XXXXX     ..........XXXXXOOOOO     .....oooooXXXXX.....oooooXXXXX          ",
".....XXXXX     ..........XXXXXOOOOO     .....oooooXXXXX.....oooooXXXXX          ",
".....XXXXX     ..........XXXXXOOOOO     .....oooooXXXXX.....oooooXXXXX          ",
".....XXXXX     ..........XXXXXOOOOO     .....oooooXXXXX.....oooooXXXXX          ",
".....XXXXX     ..........XXXXXOOOOO     .....oooooXXXXX.....oooooXXXXX          ",
"ooooo..........     ooooo...............ooooo...............          ooooo.....",
"ooooo..........     ooooo...............ooooo...............          ooooo.....",
"ooooo..........     ooooo...............ooooo...............          ooooo.....",
"ooooo..........     ooooo...............ooooo...............          ooooo.....",
"ooooo..........     ooooo...............ooooo...............          ooooo.....",
"XXXXXOOOOOooooo.....XXXXX     .....oooooXXXXXXXXXX.....XXXXX.....oooooXXXXX.....",
"XXXXXOOOOOooooo.....XXXXX     .....oooooXXXXXXXXXX.....XXXXX.....oooooXXXXX.....",
"XXXXXOOOOOooooo.....XXXXX     .....oooooXXXXXXXXXX.....XXXXX.....oooooXXXXX.....",
"XXXXXOOOOOooooo.....XXXXX     .....oooooXXXXXXXXXX.....XXXXX.....oooooXXXXX.....",
"XXXXXOOOOOooooo.....XXXXX     .....oooooXXXXXXXXXX.....XXXXX.....oooooXXXXX.....",
"XXXXX.....XXXXXooooo     XXXXX..........XXXXX     .....OOOOO.....XXXXX     .....",
"XXXXX.....XXXXXooooo     XXXXX..........XXXXX     .....OOOOO.....XXXXX     .....",
"XXXXX.....XXXXXooooo     XXXXX..........XXXXX     .....OOOOO.....XXXXX     .....",
"XXXXX.....XXXXXooooo     XXXXX..........XXXXX     .....OOOOO.....XXXXX     .....",
"XXXXX.....XXXXXooooo     XXXXX..........XXXXX     .....OOOOO.....XXXXX     .....",
".....     XXXXXXXXXX.....XXXXX               ..........     ...............ooooo",
".....     XXXXXXXXXX.....XXXXX               ..........     ...............ooooo",
".....     XXXXXXXXXX.....XXXXX               ..........     ...............ooooo",
".....     XXXXXXXXXX.....XXXXX               ..........     ...............ooooo",
".....     XXXXXXXXXX.....XXXXX               ..........     ...............ooooo",
"ooooo...............OOOOO..........oooooooooo....ooooooooooo.....XXXXX.....XXXXX",
"ooooo...............OOOOO..........oooooooooo....ooooooooooo.....XXXXX.....XXXXX",
"ooooo...............OOOOO..........oooooooooo....ooooooooooo.....XXXXX.....XXXXX",
"ooooo...............OOOOO..........oooooooooo....ooooooooooo.....XXXXX.....XXXXX",
"ooooo...............OOOOO..........oooooooooo....ooooooooooo.....XXXXX.....XXXXX",
"..........ooooooooooXXXXXXXXXX..........XXXXX     XXXXXXXXXX..........XXXXXXXXXX",
"..........ooooooooooXXXXXXXXXX..........XXXXX     XXXXXXXXXX..........XXXXXXXXXX",
"..........ooooooooooXXXXXXXXXX..........XXXXX     XXXXXXXXXX..........XXXXXXXXXX",
"..........ooooooooooXXXXXXXXXX..........XXXXX     XXXXXXXXXX..........XXXXXXXXXX",
"..........ooooooooooXXXXXXXXXX..........XXXXX     XXXXXXXXXX..........XXXXXXXXXX",
"XXXXX..........XXXXX.....XXXXX.....     .....XXXXXOOOOO...............     .....",
"XXXXX..........XXXXX.....XXXXX.....     .....XXXXXOOOOO...............     .....",
"XXXXX..........XXXXX.....XXXXX.....     .....XXXXXOOOOO...............     .....",
"XXXXX..........XXXXX.....XXXXX.....     .....XXXXXOOOOO...............     .....",
"XXXXX..........XXXXX.....XXXXX.....     .....XXXXXOOOOO...............     .....",
".....XXXXX     ..........          .........................oooooooooo.....XXXXX",
".....XXXXX     ..........          .........................oooooooooo.....XXXXX",
".....XXXXX     ..........          .........................oooooooooo.....XXXXX",
".....XXXXX     ..........          .........................oooooooooo.....XXXXX",
".....XXXXX     ..........          .........................oooooooooo.....XXXXX",
".....XXXXX.....oooooooooo.....oooooXXXXX     oooooooooo     XXXXXXXXXXOOOOO.....",
".....XXXXX.....oooooooooo.....oooooXXXXX     oooooooooo     XXXXXXXXXXOOOOO.....",
".....XXXXX.....oooooooooo.....oooooXXXXX     oooooooooo     XXXXXXXXXXOOOOO.....",
".....XXXXX.....oooooooooo.....oooooXXXXX     oooooooooo     XXXXXXXXXXOOOOO.....",
".....XXXXX.....oooooooooo.....oooooXXXXX     oooooooooo     XXXXXXXXXXOOOOO.....",
"OOOOO..........XXXXXXXXXXooooo.....XXXXXOOOOOXXXXXXXXXX.....     XXXXX.....     ",
"OOOOO..........XXXXXXXXXXooooo.....XXXXXOOOOOXXXXXXXXXX.....     XXXXX.....     ",
"OOOOO..........XXXXXXXXXXooooo.....XXXXXOOOOOXXXXXXXXXX.....     XXXXX.....     ",
"OOOOO..........XXXXXXXXXXooooo.....XXXXXOOOOOXXXXXXXXXX.....     XXXXX.....     ",
"OOOOO..........XXXXXXXXXXooooo.....XXXXXOOOOOXXXXXXXXXX.....     XXXXX.....     ",
".....     XXXXX.....XXXXXXXXXXooooo...................................oooooooooo",
".....     XXXXX.....XXXXXXXXXXooooo...................................oooooooooo",
".....     XXXXX.....XXXXXXXXXXooooo...................................oooooooooo",
".....     XXXXX.....XXXXXXXXXXooooo...................................oooooooooo",
".....     XXXXX.....XXXXXXXXXXooooo...................................oooooooooo",
".....XXXXX....................XXXXXXXXXX.....     ooooo     .....oooooXXXXXXXXXX",
".....XXXXX....................XXXXXXXXXX.....     ooooo     .....oooooXXXXXXXXXX",
".....XXXXX....................XXXXXXXXXX.....     ooooo     .....oooooXXXXXXXXXX",
".....XXXXX....................XXXXXXXXXX.....     ooooo     .....oooooXXXXXXXXXX",
".....XXXXX....................XXXXXXXXXX.....     ooooo     .....oooooXXXXXXXXXX",
"XXXXX.....     ooooo.....     .....     oooooooooo.....XXXXXOOOOO.....XXXXXXXXXX",
"XXXXX.....     ooooo.....     .....     oooooooooo.....XXXXXOOOOO.....XXXXXXXXXX",
"XXXXX.....     ooooo.....     .....     oooooooooo.....XXXXXOOOOO.....XXXXXXXXXX",
"XXXXX.....     ooooo.....     .....     oooooooooo.....XXXXXOOOOO.....XXXXXXXXXX",
"XXXXX.....     ooooo.....     .....     oooooooooo.....XXXXXOOOOO.....XXXXXXXXXX",
"XXXXX.....oooooXXXXXXXXXX.....OOOOO.....XXXXXXXXXX..........XXXXXXXXXX.....     ",
"XXXXX.....oooooXXXXXXXXXX.....OOOOO.....XXXXXXXXXX..........XXXXXXXXXX.....     ",
"XXXXX.....oooooXXXXXXXXXX.....OOOOO.....XXXXXXXXXX..........XXXXXXXXXX.....     ",
"XXXXX.....oooooXXXXXXXXXX.....OOOOO.....XXXXXXXXXX..........XXXXXXXXXX.....     ",
"XXXXX.....oooooXXXXXXXXXX.....OOOOO.....XXXXXXXXXX..........XXXXXXXXXX.....     "
};