/* XPM */
static char *_01eee58b34840a093e5722308371325noESPOGg7OyIp1Ba[] = {
/* columns rows colors chars-per-pixel */
"80 80 5 1 ",
"  c #280445",
". c #4C18AE",
"X c #691AC9",
"o c #802CDB",
"O c #9641DB",
/* pixels */
"                                                                                ",
"                                                                                ",
"                                                                                ",
"                                                                                ",
"    .XXXXXoooooXXXXXXXXXX..........oooooXXXXX.....XXXXXOOOOOooooo..........X    ",
"    OoooooXXXXXOOOOOXXXXX..........XXXXX..........XXXXX...............XXXXXX    ",
"    OoooooXXXXXOOOOOXXXXX..........XXXXX..........XXXXX...............XXXXXX    ",
"    OoooooXXXXXOOOOOXXXXX..........XXXXX..........XXXXX...............XXXXXX    ",
"    OoooooXXXXXOOOOOXXXXX..........XXXXX..........XXXXX...............XXXXXX    ",
"    OoooooXXXXXOOOOOXXXXX..........XXXXX..........XXXXX...............XXXXXX    ",
"    oXXXXXOOOOOXXXXX..........XXXXXooooooooooXXXXXoooooooooo..........XXXXXo    ",
"    oXXXXXOOOOOXXXXX..........XXXXXooooooooooXXXXXoooooooooo..........XXXXXo    ",
"    oXXXXXOOOOOXXXXX..........XXXXXooooooooooXXXXXoooooooooo..........XXXXXo    ",
"    oXXXXXOOOOOXXXXX..........XXXXXooooooooooXXXXXoooooooooo..........XXXXXo    ",
"    oXXXXXOOOOOXXXXX..........XXXXXooooooooooXXXXXoooooooooo..........XXXXXo    ",
"    .XXXXXXXXXX..........XXXXXOOOOOXXXXXoooooOOOOOXXXXXOOOOOooooo..........X    ",
"    .XXXXXXXXXX..........XXXXXOOOOOXXXXXoooooOOOOOXXXXXOOOOOooooo..........X    ",
"    .XXXXXXXXXX..........XXXXXOOOOOXXXXXoooooOOOOOXXXXXOOOOOooooo..........X    ",
"    .XXXXXXXXXX..........XXXXXOOOOOXXXXXoooooOOOOOXXXXXOOOOOooooo..........X    ",
"    .XXXXXXXXXX..........XXXXXOOOOOXXXXXoooooOOOOOXXXXXOOOOOooooo..........X    ",
"    .XXXXX..........XXXXXOOOOOooooo....................XXXXXOOOOOXXXXX......    ",
"    .XXXXX..........XXXXXOOOOOooooo....................XXXXXOOOOOXXXXX......    ",
"    .XXXXX..........XXXXXOOOOOooooo....................XXXXXOOOOOXXXXX......    ",
"    .XXXXX..........XXXXXOOOOOooooo....................XXXXXOOOOOXXXXX......    ",
"    .XXXXX..........XXXXXOOOOOooooo....................XXXXXOOOOOXXXXX......    ",
"    ...........XXXXXOOOOOooooo.....XXXXXXXXXXooooo..........XXXXXoooooXXXXX.    ",
"    ...........XXXXXOOOOOooooo.....XXXXXXXXXXooooo..........XXXXXoooooXXXXX.    ",
"    ...........XXXXXOOOOOooooo.....XXXXXXXXXXooooo..........XXXXXoooooXXXXX.    ",
"    ...........XXXXXOOOOOooooo.....XXXXXXXXXXooooo..........XXXXXoooooXXXXX.    ",
"    ...........XXXXXOOOOOooooo.....XXXXXXXXXXooooo..........XXXXXoooooXXXXX.    ",
"    OoooooXXXXXOOOOOooooo.....XXXXXoooooooooooooooooooo..........XXXXXoooooo    ",
"    OoooooXXXXXOOOOOooooo.....XXXXXoooooooooooooooooooo..........XXXXXoooooo    ",
"    OoooooXXXXXOOOOOooooo.....XXXXXoooooooooooooooooooo..........XXXXXoooooo    ",
"    OoooooXXXXXOOOOOooooo.....XXXXXoooooooooooooooooooo..........XXXXXoooooo    ",
"    OoooooXXXXXOOOOOooooo.....XXXXXoooooooooooooooooooo..........XXXXXoooooo    ",
"    oXXXXX.....XXXXX..........OOOOOOOOOOOOOOOOOOOOoooooXXXXX...............o    ",
"    oXXXXX.....XXXXX..........OOOOOOOOOOOOOOOOOOOOoooooXXXXX...............o    ",
"    oXXXXX.....XXXXX..........OOOOOOOOOOOOOOOOOOOOoooooXXXXX...............o    ",
"    oXXXXX.....XXXXX..........OOOOOOOOOOOOOOOOOOOOoooooXXXXX...............o    ",
"    oXXXXX.....XXXXX..........OOOOOOOOOOOOOOOOOOOOoooooXXXXX...............o    ",
"    OXXXXX.....XXXXX..........OOOOOXXXXXoooooXXXXXXXXXXooooo..........oooooo    ",
"    OXXXXX.....XXXXX..........OOOOOXXXXXoooooXXXXXXXXXXooooo..........oooooo    ",
"    OXXXXX.....XXXXX..........OOOOOXXXXXoooooXXXXXXXXXXooooo..........oooooo    ",
"    OXXXXX.....XXXXX..........OOOOOXXXXXoooooXXXXXXXXXXooooo..........oooooo    ",
"    OXXXXX.....XXXXX..........OOOOOXXXXXoooooXXXXXXXXXXooooo..........oooooo    ",
"    o.....XXXXXOOOOOOOOOO.....XXXXXXXXXXXXXXXOOOOOoooooOOOOOooooo.....XXXXXX    ",
"    o.....XXXXXOOOOOOOOOO.....XXXXXXXXXXXXXXXOOOOOoooooOOOOOooooo.....XXXXXX    ",
"    o.....XXXXXOOOOOOOOOO.....XXXXXXXXXXXXXXXOOOOOoooooOOOOOooooo.....XXXXXX    ",
"    o.....XXXXXOOOOOOOOOO.....XXXXXXXXXXXXXXXOOOOOoooooOOOOOooooo.....XXXXXX    ",
"    o.....XXXXXOOOOOOOOOO.....XXXXXXXXXXXXXXXOOOOOoooooOOOOOooooo.....XXXXXX    ",
"    ...........XXXXXOOOOOOOOOO.....XXXXXOOOOOoooooOOOOOooooo................    ",
"    ...........XXXXXOOOOOOOOOO.....XXXXXOOOOOoooooOOOOOooooo................    ",
"    ...........XXXXXOOOOOOOOOO.....XXXXXOOOOOoooooOOOOOooooo................    ",
"    ...........XXXXXOOOOOOOOOO.....XXXXXOOOOOoooooOOOOOooooo................    ",
"    ...........XXXXXOOOOOOOOOO.....XXXXXOOOOOoooooOOOOOooooo................    ",
"    Xooooo..........XXXXXOOOOOoooooOOOOOOOOOOOOOOOooooo.........XXXXXXOOOOOo    ",
"    Xooooo..........XXXXXOOOOOoooooOOOOOOOOOOOOOOOooooo.........XXXXXXOOOOOo    ",
"    Xooooo..........XXXXXOOOOOoooooOOOOOOOOOOOOOOOooooo.........XXXXXXOOOOOo    ",
"    Xooooo..........XXXXXOOOOOoooooOOOOOOOOOOOOOOOooooo.........XXXXXXOOOOOo    ",
"    Xooooo..........XXXXXOOOOOoooooOOOOOOOOOOOOOOOooooo.........XXXXXXOOOOOo    ",
"    XOOOOOooooo..........ooooooooooooooooooooooooo..........XXXXXOOOOOOOOOOo    ",
"    XOOOOOooooo..........ooooooooooooooooooooooooo..........XXXXXOOOOOOOOOOo    ",
"    XOOOOOooooo..........ooooooooooooooooooooooooo..........XXXXXOOOOOOOOOOo    ",
"    XOOOOOooooo..........ooooooooooooooooooooooooo..........XXXXXOOOOOOOOOOo    ",
"    XOOOOOooooo..........ooooooooooooooooooooooooo..........XXXXXOOOOOOOOOOo    ",
"    ......OOOOOooooo..........XXXXXXXXXXXXXXX..........XXXXXoooooOOOOO......    ",
"    ......OOOOOooooo..........XXXXXXXXXXXXXXX..........XXXXXoooooOOOOO......    ",
"    ......OOOOOooooo..........XXXXXXXXXXXXXXX..........XXXXXoooooOOOOO......    ",
"    ......OOOOOooooo..........XXXXXXXXXXXXXXX..........XXXXXoooooOOOOO......    ",
"    ......OOOOOooooo..........XXXXXXXXXXXXXXX..........XXXXXoooooOOOOO......    ",
"    ......XXXXXOOOOOOOOOO..........XXXXXXXXXX.....XXXXXOOOOOooooo...........    ",
"    ......XXXXXOOOOOOOOOO..........XXXXXXXXXX.....XXXXXOOOOOooooo...........    ",
"    ......XXXXXOOOOOOOOOO..........XXXXXXXXXX.....XXXXXOOOOOooooo...........    ",
"    ......XXXXXOOOOOOOOOO..........XXXXXXXXXX.....XXXXXOOOOOooooo...........    ",
"    ......XXXXXOOOOOOOOOO..........XXXXXXXXXX.....XXXXXOOOOOooooo...........    ",
"    .XXXXXoooooooooooooooXXXXXXXXXXOOOOOooooo.....oooooooooo................    ",
"                                                                                ",
"                                                                                ",
"                                                                                ",
"                                                                                "
};