/* XPM */
static char *_f8af22f586b4b2ab39587a16f4246b0sKd2jsJ4f9NkbP79[] = {
/* columns rows colors chars-per-pixel */
"80 80 4 1 ",
"  c #05630b",
". c #088a13",
"X c #0c9913",
"o c #0bb310",
/* pixels */
"ooooo...............XXXXXXXXXX     .....XXXXX     ooooo.....ooooo          ooooo",
"ooooo...............XXXXXXXXXX     .....XXXXX     ooooo.....ooooo          ooooo",
"ooooo...............XXXXXXXXXX     .....XXXXX     ooooo.....ooooo          ooooo",
"ooooo...............XXXXXXXXXX     .....XXXXX     ooooo.....ooooo          ooooo",
"ooooo...............XXXXXXXXXX     .....XXXXX     ooooo.....ooooo          ooooo",
"oooooooooo     XXXXX.....     .....     ..........     oooooXXXXX     ooooo     ",
"oooooooooo     XXXXX.....     .....     ..........     oooooXXXXX     ooooo     ",
"oooooooooo     XXXXX.....     .....     ..........     oooooXXXXX     ooooo     ",
"oooooooooo     XXXXX.....     .....     ..........     oooooXXXXX     ooooo     ",
"oooooooooo     XXXXX.....     .....     ..........     oooooXXXXX     ooooo     ",
".....          XXXXXooooo               XXXXX          XXXXXXXXXX     oooooooooo",
".....          XXXXXooooo               XXXXX          XXXXXXXXXX     oooooooooo",
".....          XXXXXooooo               XXXXX          XXXXXXXXXX     oooooooooo",
".....          XXXXXooooo               XXXXX          XXXXXXXXXX     oooooooooo",
".....          XXXXXooooo               XXXXX          XXXXXXXXXX     oooooooooo",
".....XXXXX     ooooo     XXXXXXXXXXooooooooooXXXXXXXXXXXXXXX     XXXXX..........",
".....XXXXX     ooooo     XXXXXXXXXXooooooooooXXXXXXXXXXXXXXX     XXXXX..........",
".....XXXXX     ooooo     XXXXXXXXXXooooooooooXXXXXXXXXXXXXXX     XXXXX..........",
".....XXXXX     ooooo     XXXXXXXXXXooooooooooXXXXXXXXXXXXXXX     XXXXX..........",
".....XXXXX     ooooo     XXXXXXXXXXooooooooooXXXXXXXXXXXXXXX     XXXXX..........",
"..........XXXXXXXXXXXXXXX     XXXXXoooooXXXXX     XXXXXooooooooooXXXXX     .....",
"..........XXXXXXXXXXXXXXX     XXXXXoooooXXXXX     XXXXXooooooooooXXXXX     .....",
"..........XXXXXXXXXXXXXXX     XXXXXoooooXXXXX     XXXXXooooooooooXXXXX     .....",
"..........XXXXXXXXXXXXXXX     XXXXXoooooXXXXX     XXXXXooooooooooXXXXX     .....",
"..........XXXXXXXXXXXXXXX     XXXXXoooooXXXXX     XXXXXooooooooooXXXXX     .....",
"               XXXXX.....XXXXX.....XXXXXoooooXXXXXoooooXXXXXXXXXXooooo.....     ",
"               XXXXX.....XXXXX.....XXXXXoooooXXXXXoooooXXXXXXXXXXooooo.....     ",
"               XXXXX.....XXXXX.....XXXXXoooooXXXXXoooooXXXXXXXXXXooooo.....     ",
"               XXXXX.....XXXXX.....XXXXXoooooXXXXXoooooXXXXXXXXXXooooo.....     ",
"               XXXXX.....XXXXX.....XXXXXoooooXXXXXoooooXXXXXXXXXXooooo.....     ",
"     .....XXXXXXXXXXXXXXX.....XXXXXXXXXXoooooXXXXXoooooXXXXXooooo     ooooo     ",
"     .....XXXXXXXXXXXXXXX.....XXXXXXXXXXoooooXXXXXoooooXXXXXooooo     ooooo     ",
"     .....XXXXXXXXXXXXXXX.....XXXXXXXXXXoooooXXXXXoooooXXXXXooooo     ooooo     ",
"     .....XXXXXXXXXXXXXXX.....XXXXXXXXXXoooooXXXXXoooooXXXXXooooo     ooooo     ",
"     .....XXXXXXXXXXXXXXX.....XXXXXXXXXXoooooXXXXXoooooXXXXXooooo     ooooo     ",
"..........     ooooooooooXXXXXooooooooooXXXXXXXXXXXXXXXoooooXXXXXXXXXX     .....",
"..........     ooooooooooXXXXXooooooooooXXXXXXXXXXXXXXXoooooXXXXXXXXXX     .....",
"..........     ooooooooooXXXXXooooooooooXXXXXXXXXXXXXXXoooooXXXXXXXXXX     .....",
"..........     ooooooooooXXXXXooooooooooXXXXXXXXXXXXXXXoooooXXXXXXXXXX     .....",
"..........     ooooooooooXXXXXooooooooooXXXXXXXXXXXXXXXoooooXXXXXXXXXX     .....",
"               oooooXXXXX     XXXXXXXXXXooooooooooXXXXXoooooXXXXX..........ooooo",
"               oooooXXXXX     XXXXXXXXXXooooooooooXXXXXoooooXXXXX..........ooooo",
"               oooooXXXXX     XXXXXXXXXXooooooooooXXXXXoooooXXXXX..........ooooo",
"               oooooXXXXX     XXXXXXXXXXooooooooooXXXXXoooooXXXXX..........ooooo",
"               oooooXXXXX     XXXXXXXXXXooooooooooXXXXXoooooXXXXX..........ooooo",
"     .....XXXXXXXXXXXXXXXXXXXX     XXXXXoooooXXXXX.....XXXXXooooo     .....     ",
"     .....XXXXXXXXXXXXXXXXXXXX     XXXXXoooooXXXXX.....XXXXXooooo     .....     ",
"     .....XXXXXXXXXXXXXXXXXXXX     XXXXXoooooXXXXX.....XXXXXooooo     .....     ",
"     .....XXXXXXXXXXXXXXXXXXXX     XXXXXoooooXXXXX.....XXXXXooooo     .....     ",
"     .....XXXXXXXXXXXXXXXXXXXX     XXXXXoooooXXXXX.....XXXXXooooo     .....     ",
"..........ooooooooooXXXXX     XXXXXoooooXXXXXoooooXXXXXoooooooooo               ",
"..........ooooooooooXXXXX     XXXXXoooooXXXXXoooooXXXXXoooooooooo               ",
"..........ooooooooooXXXXX     XXXXXoooooXXXXXoooooXXXXXoooooooooo               ",
"..........ooooooooooXXXXX     XXXXXoooooXXXXXoooooXXXXXoooooooooo               ",
"..........ooooooooooXXXXX     XXXXXoooooXXXXXoooooXXXXXoooooooooo               ",
".....          XXXXX.....XXXXXoooooXXXXX     XXXXX     XXXXXXXXXX     .....     ",
".....          XXXXX.....XXXXXoooooXXXXX     XXXXX     XXXXXXXXXX     .....     ",
".....          XXXXX.....XXXXXoooooXXXXX     XXXXX     XXXXXXXXXX     .....     ",
".....          XXXXX.....XXXXXoooooXXXXX     XXXXX     XXXXXXXXXX     .....     ",
".....          XXXXX.....XXXXXoooooXXXXX     XXXXX     XXXXXXXXXX     .....     ",
"     .....XXXXXXXXXXXXXXXXXXXXXXXXXoooooXXXXX.....XXXXXXXXXXXXXXX     ..........",
"     .....XXXXXXXXXXXXXXXXXXXXXXXXXoooooXXXXX.....XXXXXXXXXXXXXXX     ..........",
"     .....XXXXXXXXXXXXXXXXXXXXXXXXXoooooXXXXX.....XXXXXXXXXXXXXXX     ..........",
"     .....XXXXXXXXXXXXXXXXXXXXXXXXXoooooXXXXX.....XXXXXXXXXXXXXXX     ..........",
"     .....XXXXXXXXXXXXXXXXXXXXXXXXXoooooXXXXX.....XXXXXXXXXXXXXXX     ..........",
"..........XXXXX     .....XXXXXooooo          XXXXX          XXXXX          .....",
"..........XXXXX     .....XXXXXooooo          XXXXX          XXXXX          .....",
"..........XXXXX     .....XXXXXooooo          XXXXX          XXXXX          .....",
"..........XXXXX     .....XXXXXooooo          XXXXX          XXXXX          .....",
"..........XXXXX     .....XXXXXooooo          XXXXX          XXXXX          .....",
".....          ooooo.....               .....     XXXXX.....          ooooo.....",
".....          ooooo.....               .....     XXXXX.....          ooooo.....",
".....          ooooo.....               .....     XXXXX.....          ooooo.....",
".....          ooooo.....               .....     XXXXX.....          ooooo.....",
".....          ooooo.....               .....     XXXXX.....          ooooo.....",
"...............     oooooooooo.....     XXXXX..........ooooo..........oooooooooo",
"...............     oooooooooo.....     XXXXX..........ooooo..........oooooooooo",
"...............     oooooooooo.....     XXXXX..........ooooo..........oooooooooo",
"...............     oooooooooo.....     XXXXX..........ooooo..........oooooooooo",
"...............     oooooooooo.....     XXXXX..........ooooo..........oooooooooo"
};