/* XPM */
static char *_729833a1ce14021e97d4195772b6d23vo8AI4zGYy6Ik49R[] = {
/* columns rows colors chars-per-pixel */
"80 80 7 1 ",
"  c None",
". c black",
"X c gray50",
"o c #B97A57",
"O c #F26F9B",
"+ c #C3C3C3",
"@ c gray89",
/* pixels */
"++++++++++++++++++++++++++++++++                                                ",
"++++++++++++++++++++++++++++++++                                                ",
"++++++++++++++++++++++++++++++++                                                ",
"++++++++++++++++++++++++++++++++                                                ",
"++++@@@@@@@@@@@@@@@@@@@@@@@@++++                                                ",
"++++@@@@@@@@@@@@@@@@@@@@@@@@++++                                                ",
"++++@@@@@@@@@@@@@@@@@@@@@@@@++++                                                ",
"++++@@@@@@@@@@@@@@@@@@@@@@@@++++                                                ",
"++++oooooooooooooooooooooooo++++                                                ",
"++++oooooooooooooooooooooooo++++                                                ",
"++++oooooooooooooooooooooooo++++                                                ",
"++++oooooooooooooooooooooooo++++                                                ",
"++++....@@@@oooooooo....@@@@++++                                                ",
"++++....@@@@oooooooo....@@@@++++                                                ",
"++++....@@@@oooooooo....@@@@++++                                                ",
"++++....@@@@oooooooo....@@@@++++                                                ",
"++++oooooooooooooooooooooooo++++XXXX++++++++++++++++++++++++++++++++++++++++++++",
"++++oooooooooooooooooooooooo++++XXXX++++++++++++++++++++++++++++++++++++++++++++",
"++++oooooooooooooooooooooooo++++XXXX++++++++++++++++++++++++++++++++++++++++++++",
"++++oooooooooooooooooooooooo++++XXXX++++++++++++++++++++++++++++++++++++++++++++",
"++++@@@@ooooOOOOOOOOoooo@@@@++++XXXX++++++++++++++++++++++++++++++++++++++++++++",
"++++@@@@ooooOOOOOOOOoooo@@@@++++XXXX++++++++++++++++++++++++++++++++++++++++++++",
"++++@@@@ooooOOOOOOOOoooo@@@@++++XXXX++++++++++++++++++++++++++++++++++++++++++++",
"++++@@@@ooooOOOOOOOOoooo@@@@++++XXXX++++++++++++++++++++++++++++++++++++++++++++",
"++++@@@@ooooOOOOOOOOoooo@@@@++++XXXX++++++++++++++++++++++++++++++++++++++++++++",
"++++@@@@ooooOOOOOOOOoooo@@@@++++XXXX++++++++++++++++++++++++++++++++++++++++++++",
"++++@@@@ooooOOOOOOOOoooo@@@@++++XXXX++++++++++++++++++++++++++++++++++++++++++++",
"++++@@@@ooooOOOOOOOOoooo@@@@++++XXXX++++++++++++++++++++++++++++++++++++++++++++",
"++++++++++++++++++++++++++++++++XXXX++++++++++++++++++++++++++++++++++++++++++++",
"++++++++++++++++++++++++++++++++XXXX++++++++++++++++++++++++++++++++++++++++++++",
"++++++++++++++++++++++++++++++++XXXX++++++++++++++++++++++++++++++++++++++++++++",
"++++++++++++++++++++++++++++++++XXXX++++++++++++++++++++++++++++++++++++++++++++",
"                ++++++++++++++++++++++++++++++++++++++++++++++++++++++++++++++++",
"                ++++++++++++++++++++++++++++++++++++++++++++++++++++++++++++++++",
"                ++++++++++++++++++++++++++++++++++++++++++++++++++++++++++++++++",
"                ++++++++++++++++++++++++++++++++++++++++++++++++++++++++++++++++",
"                ++++++++++++++++++++++++++++++++++++++++++++++++++++++++++++++++",
"                ++++++++++++++++++++++++++++++++++++++++++++++++++++++++++++++++",
"                ++++++++++++++++++++++++++++++++++++++++++++++++++++++++++++++++",
"                ++++++++++++++++++++++++++++++++++++++++++++++++++++++++++++++++",
"                ++++++++++++++++++++++++++++++++++++++++++++++++++++++++++++++++",
"                ++++++++++++++++++++++++++++++++++++++++++++++++++++++++++++++++",
"                ++++++++++++++++++++++++++++++++++++++++++++++++++++++++++++++++",
"                ++++++++++++++++++++++++++++++++++++++++++++++++++++++++++++++++",
"                ++++++++++++++++++++++++++++++++++++++++++++++++++++++++++++++++",
"                ++++++++++++++++++++++++++++++++++++++++++++++++++++++++++++++++",
"                ++++++++++++++++++++++++++++++++++++++++++++++++++++++++++++++++",
"                ++++++++++++++++++++++++++++++++++++++++++++++++++++++++++++++++",
"                ++++++++++++++++++++++++++++++++++++++++++++++++++++++++++++++++",
"                ++++++++++++++++++++++++++++++++++++++++++++++++++++++++++++++++",
"                ++++++++++++++++++++++++++++++++++++++++++++++++++++++++++++++++",
"                ++++++++++++++++++++++++++++++++++++++++++++++++++++++++++++++++",
"                    XXXX++++++++++++                        XXXX++++++++++++    ",
"                    XXXX++++++++++++                        XXXX++++++++++++    ",
"                    XXXX++++++++++++                        XXXX++++++++++++    ",
"                    XXXX++++++++++++                        XXXX++++++++++++    ",
"                    XXXX++++++++++++                        XXXX++++++++++++    ",
"                    XXXX++++++++++++                        XXXX++++++++++++    ",
"                    XXXX++++++++++++                        XXXX++++++++++++    ",
"                    XXXX++++++++++++                        XXXX++++++++++++    ",
"                    oooo++++++++++++                        oooo++++++++++++    ",
"                    oooo++++++++++++                        oooo++++++++++++    ",
"                    oooo++++++++++++                        oooo++++++++++++    ",
"                    oooo++++++++++++                        oooo++++++++++++    ",
"                    oooooooooooooooo                        oooooooooooooooo    ",
"                    oooooooooooooooo                        oooooooooooooooo    ",
"                    oooooooooooooooo                        oooooooooooooooo    ",
"                    oooooooooooooooo                        oooooooooooooooo    ",
"                    oooooooooooooooo                        oooooooooooooooo    ",
"                    oooooooooooooooo                        oooooooooooooooo    ",
"                    oooooooooooooooo                        oooooooooooooooo    ",
"                    oooooooooooooooo                        oooooooooooooooo    ",
"                    ....oooooooooooo                        ....oooooooooooo    ",
"                    ....oooooooooooo                        ....oooooooooooo    ",
"                    ....oooooooooooo                        ....oooooooooooo    ",
"                    ....oooooooooooo                        ....oooooooooooo    ",
"                        ............                            ............    ",
"                        ............                            ............    ",
"                        ............                            ............    ",
"                        ............                            ............    "
};