/* XPM */
static char *_0711e4f6d564f46c5ad6b89b8533d6eLG6qjmkATlAtfije[] = {
/* columns rows colors chars-per-pixel */
"80 80 7 1 ",
"  c None",
". c black",
"X c gray50",
"o c #B97957",
"O c #F26F9B",
"+ c #C3C3C3",
"@ c gray89",
/* pixels */
"                                                ++++++++++++++++++++++++++++++++",
"                                                ++++++++++++++++++++++++++++++++",
"                                                ++++++++++++++++++++++++++++++++",
"                                                ++++++++++++++++++++++++++++++++",
"                                                ++++@@@@@@@@@@@@@@@@@@@@@@@@++++",
"                                                ++++@@@@@@@@@@@@@@@@@@@@@@@@++++",
"                                                ++++@@@@@@@@@@@@@@@@@@@@@@@@++++",
"                                                ++++@@@@@@@@@@@@@@@@@@@@@@@@++++",
"                                                ++++oooooooooooooooooooooooo++++",
"                                                ++++oooooooooooooooooooooooo++++",
"                                                ++++oooooooooooooooooooooooo++++",
"                                                ++++oooooooooooooooooooooooo++++",
"                                                ++++@@@@....oooooooo@@@@....++++",
"                                                ++++@@@@....oooooooo@@@@....++++",
"                                                ++++@@@@....oooooooo@@@@....++++",
"                                                ++++@@@@....oooooooo@@@@....++++",
"                                                ++++oooooooooooooooooooooooo++++",
"++++++++++++++++++++++++++++++++++++++++++++XXXX++++oooooooooooooooooooooooo++++",
"++++++++++++++++++++++++++++++++++++++++++++XXXX++++oooooooooooooooooooooooo++++",
"++++++++++++++++++++++++++++++++++++++++++++XXXX++++oooooooooooooooooooooooo++++",
"++++++++++++++++++++++++++++++++++++++++++++XXXX++++@@@@ooooOOOOOOOOoooo@@@@++++",
"++++++++++++++++++++++++++++++++++++++++++++XXXX++++@@@@ooooOOOOOOOOoooo@@@@++++",
"++++++++++++++++++++++++++++++++++++++++++++XXXX++++@@@@ooooOOOOOOOOoooo@@@@++++",
"++++++++++++++++++++++++++++++++++++++++++++XXXX++++@@@@ooooOOOOOOOOoooo@@@@++++",
"++++++++++++++++++++++++++++++++++++++++++++XXXX++++@@@@ooooOOOOOOOOoooo@@@@++++",
"++++++++++++++++++++++++++++++++++++++++++++XXXX++++@@@@ooooOOOOOOOOoooo@@@@++++",
"++++++++++++++++++++++++++++++++++++++++++++XXXX++++@@@@ooooOOOOOOOOoooo@@@@++++",
"++++++++++++++++++++++++++++++++++++++++++++XXXX++++@@@@ooooOOOOOOOOoooo@@@@++++",
"++++++++++++++++++++++++++++++++++++++++++++XXXX++++++++++++++++++++++++++++++++",
"++++++++++++++++++++++++++++++++++++++++++++XXXX++++++++++++++++++++++++++++++++",
"++++++++++++++++++++++++++++++++++++++++++++XXXX++++++++++++++++++++++++++++++++",
"++++++++++++++++++++++++++++++++++++++++++++XXXX++++++++++++++++++++++++++++++++",
"++++++++++++++++++++++++++++++++++++++++++++++++++++++++++++++++                ",
"++++++++++++++++++++++++++++++++++++++++++++++++++++++++++++++++                ",
"++++++++++++++++++++++++++++++++++++++++++++++++++++++++++++++++                ",
"++++++++++++++++++++++++++++++++++++++++++++++++++++++++++++++++                ",
"++++++++++++++++++++++++++++++++++++++++++++++++++++++++++++++++                ",
"++++++++++++++++++++++++++++++++++++++++++++++++++++++++++++++++                ",
"++++++++++++++++++++++++++++++++++++++++++++++++++++++++++++++++                ",
"++++++++++++++++++++++++++++++++++++++++++++++++++++++++++++++++                ",
"++++++++++++++++++++++++++++++++++++++++++++++++++++++++++++++++                ",
"++++++++++++++++++++++++++++++++++++++++++++++++++++++++++++++++                ",
"++++++++++++++++++++++++++++++++++++++++++++++++++++++++++++++++                ",
"++++++++++++++++++++++++++++++++++++++++++++++++++++++++++++++++                ",
"++++++++++++++++++++++++++++++++++++++++++++++++++++++++++++++++                ",
"++++++++++++++++++++++++++++++++++++++++++++++++++++++++++++++++                ",
"++++++++++++++++++++++++++++++++++++++++++++++++++++++++++++++++                ",
"++++++++++++++++++++++++++++++++++++++++++++++++++++++++++++++++                ",
"++++++++++++++++++++++++++++++++++++++++++++++++++++++++++++++++                ",
"++++++++++++++++++++++++++++++++++++++++++++++++++++++++++++++++                ",
"++++++++++++++++++++++++++++++++++++++++++++++++++++++++++++++++                ",
"++++++++++++++++++++++++++++++++++++++++++++++++++++++++++++++++                ",
"    ++++++++++++XXXX                        ++++++++++++XXXX                    ",
"    ++++++++++++XXXX                        ++++++++++++XXXX                    ",
"    ++++++++++++XXXX                        ++++++++++++XXXX                    ",
"    ++++++++++++XXXX                        ++++++++++++XXXX                    ",
"    ++++++++++++XXXX                        ++++++++++++XXXX                    ",
"    ++++++++++++XXXX                        ++++++++++++XXXX                    ",
"    ++++++++++++XXXX                        ++++++++++++XXXX                    ",
"    ++++++++++++XXXX                        ++++++++++++XXXX                    ",
"    ++++++++++++oooo                        ++++++++++++oooo                    ",
"    ++++++++++++oooo                        ++++++++++++oooo                    ",
"    ++++++++++++oooo                        ++++++++++++oooo                    ",
"    ++++++++++++oooo                        ++++++++++++oooo                    ",
"    oooooooooooooooo                        oooooooooooooooo                    ",
"    oooooooooooooooo                        oooooooooooooooo                    ",
"    oooooooooooooooo                        oooooooooooooooo                    ",
"    oooooooooooooooo                        oooooooooooooooo                    ",
"    oooooooooooooooo                        oooooooooooooooo                    ",
"    oooooooooooooooo                        oooooooooooooooo                    ",
"    oooooooooooooooo                        oooooooooooooooo                    ",
"    oooooooooooooooo                        oooooooooooooooo                    ",
"    oooooooooooo....                        oooooooooooo....                    ",
"    oooooooooooo....                        oooooooooooo....                    ",
"    oooooooooooo....                        oooooooooooo....                    ",
"    oooooooooooo....                        oooooooooooo....                    ",
"    ............                            ............                        ",
"    ............                            ............                        ",
"    ............                            ............                        ",
"    ............                            ............                        "
};