/* XPM */
static char *_c3188d2965442759af437bacecd77c1Kdv0T6HoxbuQ4zre[] = {
/* columns rows colors chars-per-pixel */
"80 80 15 1 ",
"  c None",
". c #2A1C0C",
"X c #774235",
"o c gray42",
"O c #966E5B",
"+ c #A97F66",
"@ c #008000",
"# c #A98065",
"$ c #A98066",
"% c #4A3AA5",
"& c #3AC8C8",
"* c #3AC9C9",
"= c #3BC9C9",
"- c #3ACACA",
"; c white",
/* pixels */
"                        ................................                        ",
"                        ................................                        ",
"                        ................................                        ",
"                        ................................                        ",
"                        ................................                        ",
"                        ................................                        ",
"                        ................................                        ",
"                        ................................                        ",
"                        ....$$$$$$$$$$$$$$$$$$$$$$$$....                        ",
"                        ....$$$$$$$$$$$$$$$$$$$$$$$$....                        ",
"                        ....$$$$$$$$$$$$$$$$$$$$$$$$....                        ",
"                        ....$$$$$$$$$$$$$$$$$$$$$$$$....                        ",
"                        $$$$$$$$$$$$$$$$$$$$$$$$$$$$$$$$                        ",
"                        $$$$$$$$$$$$$$$$$$$$$$$$$$$$$$$$                        ",
"                        $$$$$$$$$$$$$$$$$$$$$$$$$$$$$$$$                        ",
"                        $$$$$$$$$$$$$$$$$$$$$$$$$$$$$$$$                        ",
"                        $$$$@@@@;;;;$$$$$$$$@@@@;;;;$$$$                        ",
"                        $$$$@@@@;;;;$$$$$$$$@@@@;;;;$$$$                        ",
"                        $$$$@@@@;;;;$$$$$$$$@@@@;;;;$$$$                        ",
"                        $$$$@@@@;;;;$$$$$$$$@@@@;;;;$$$$                        ",
"                        $$$$$$$$$$$$$$$$$$$$$$$$$$$$$$$$                        ",
"                        $$$$$$$$$$$$$$$$$$$$$$$$$$$$$$$$                        ",
"                        $$$$$$$$$$$$$$$$$$$$$$$$$$$$$$$$                        ",
"                        $$$$$$$$$$$$$$$$$$$$$$$$$$$$$$$$                        ",
"                        $$$$$$$$XXXXXXXXXXXXXXXX$$$$$$$$                        ",
"                        $$$$$$$$XXXXXXXXXXXXXXXX$$$$$$$$                        ",
"                        $$$$$$$$XXXXXXXXXXXXXXXX$$$$$$$$                        ",
"                        $$$$$$$$XXXXXXXXXXXXXXXX$$$$$$$$                        ",
"                        $$$$$$$$$$$$$$$$$$$$$$$$$$$$$$$$                        ",
"                        $$$$$$$$$$$$$$$$$$$$$$$$$$$$$$$$                        ",
"                        $$$$$$$$$$$$$$$$$$$$$$$$$$$$$$$$                        ",
"                        $$$$$$$$$$$$$$$$$$$$$$$$$$$$$$$$                        ",
"                                    ********                                    ",
"                                    ********                                    ",
"                                    ********                                    ",
"                                   *********                                    ",
"                                   *********                                    ",
"                                  **********                                    ",
"                                  **********                                    ",
"                                 ***********                                    ",
"                                 $$*********                                    ",
"                                $$$$$*******                                    ",
"                                $$$$$$******                                    ",
"                               $$$$$$$$*****                                    ",
"                              +$$$$$$$$*****O                                   ",
"                              $$$$$$$$******OO                                  ",
"                             $$$$$$$$$******OOO                                 ",
"                             $$$$$$$$*******OOOO                                ",
"                            $$$$$$$$$*******OOOOO                               ",
"                            $$$$$$$$********OOOOOO                              ",
"                           $$$$$$$$ ********OOOOOO                              ",
"                          $$$$$$$$$ ********OOOOO                               ",
"                          $$$$$$$$  ********OOOOO                               ",
"                            $$$$$$  ******** OOO                                ",
"                              $$$   ********  O                                 ",
"                                $   ********                                    ",
"                                    %%%%%%%%                                    ",
"                                    %%%%%%%%                                    ",
"                                    %%%%%%%%                                    ",
"                                    %%%%%%%%                                    ",
"                                    %%%%%%%%                                    ",
"                                    %%%%%%%%                                    ",
"                                    %%%%%%%%                                    ",
"                                    %%%%%%%%                                    ",
"                                    %%%%%%%%                                    ",
"                                    %%%%%%%%                                    ",
"                                    %%%%%%%%                                    ",
"                                    %%%%%%%%                                    ",
"                                    %%%%%%%%                                    ",
"                                    %%%%%%%%                                    ",
"                                    %%%%%%%%                                    ",
"                                    %%%%%%%%                                    ",
"                                    %%%%%%%%                                    ",
"                                    %%%%%%%%                                    ",
"                                    %%%%%%%%                                    ",
"                                    %%%%%%%%                                    ",
"                                    oooooooo                                    ",
"                                    oooooooo                                    ",
"                                    oooooooo                                    ",
"                                    oooooooo                                    "
};