/* XPM */
static char *_dd9e0c2949748eff295ff89947fc237NSUKO2HlRIKHaYQb[] = {
/* columns rows colors chars-per-pixel */
"80 80 13 1 ",
"  c None",
". c #2A1C0C",
"X c #774235",
"o c gray42",
"O c #966E5B",
"+ c #008000",
"@ c #A98066",
"# c #4A3AA5",
"$ c #3AC8C8",
"% c #3AC9C9",
"& c #3BC9C9",
"* c #3ACACA",
"= c white",
/* pixels */
"                        ................................                        ",
"                        ................................                        ",
"                        ................................                        ",
"                        ................................                        ",
"                        ................................                        ",
"                        ................................                        ",
"                        ................................                        ",
"                        ................................                        ",
"                        ....@@@@@@@@@@@@@@@@@@@@@@@@....                        ",
"                        ....@@@@@@@@@@@@@@@@@@@@@@@@....                        ",
"                        ....@@@@@@@@@@@@@@@@@@@@@@@@....                        ",
"                        ....@@@@@@@@@@@@@@@@@@@@@@@@....                        ",
"                        @@@@@@@@@@@@@@@@@@@@@@@@@@@@@@@@                        ",
"                        @@@@@@@@@@@@@@@@@@@@@@@@@@@@@@@@                        ",
"                        @@@@@@@@@@@@@@@@@@@@@@@@@@@@@@@@                        ",
"                        @@@@@@@@@@@@@@@@@@@@@@@@@@@@@@@@                        ",
"                        @@@@====++++@@@@@@@@====++++@@@@                        ",
"                        @@@@====++++@@@@@@@@====++++@@@@                        ",
"                        @@@@====++++@@@@@@@@====++++@@@@                        ",
"                        @@@@====++++@@@@@@@@====++++@@@@                        ",
"                        @@@@@@@@@@@@@@@@@@@@@@@@@@@@@@@@                        ",
"                        @@@@@@@@@@@@@@@@@@@@@@@@@@@@@@@@                        ",
"                        @@@@@@@@@@@@@@@@@@@@@@@@@@@@@@@@                        ",
"                        @@@@@@@@@@@@@@@@@@@@@@@@@@@@@@@@                        ",
"                        @@@@@@@@XXXXXXXXXXXXXXXX@@@@@@@@                        ",
"                        @@@@@@@@XXXXXXXXXXXXXXXX@@@@@@@@                        ",
"                        @@@@@@@@XXXXXXXXXXXXXXXX@@@@@@@@                        ",
"                        @@@@@@@@XXXXXXXXXXXXXXXX@@@@@@@@                        ",
"                        @@@@@@@@@@@@@@@@@@@@@@@@@@@@@@@@                        ",
"                        @@@@@@@@@@@@@@@@@@@@@@@@@@@@@@@@                        ",
"                        @@@@@@@@@@@@@@@@@@@@@@@@@@@@@@@@                        ",
"                        @@@@@@@@@@@@@@@@@@@@@@@@@@@@@@@@                        ",
"                                    %%%%%%%%                                    ",
"                                    %%%%%%%%                                    ",
"                                    %%%%%%%%                                    ",
"                                    %$%%%%%%%                                   ",
"                                    %%%%%%%%%                                   ",
"                                    %%%%%%%%%%                                  ",
"                                    %%%%%%%%%%                                  ",
"                                    %%%%%%%%%%%                                 ",
"                                    %%%%%%%%%@@                                 ",
"                                    %%%%%%%@@@@@                                ",
"                                    %%%%%%@@@@@@                                ",
"                                    %%%%%@@@@@@@@                               ",
"                                   O%%%%%@@@@@@@@@                              ",
"                                  OO%%%%%%@@@@@@@@                              ",
"                                 OOO%%%%%%@@@@@@@@@                             ",
"                                OOOO%%%%%%%@@@@@@@@                             ",
"                               OOOOO%%%%%%%@@@@@@@@@                            ",
"                              OOOOOO%%%%%%%%@@@@@@@@                            ",
"                              OOOOOO%%%%%%%% @@@@@@@@                           ",
"                               OOOOO%%%%%%%% @@@@@@@@@                          ",
"                               OOOOO%%%%%%%%  @@@@@@@@                          ",
"                                OOO %%%%%%%%  @@@@@@                            ",
"                                 O  %%%%%%%%   @@@                              ",
"                                    %%%%%%%%    @                               ",
"                                    ########                                    ",
"                                    ########                                    ",
"                                    ########                                    ",
"                                    ########                                    ",
"                                    ########                                    ",
"                                    ########                                    ",
"                                    ########                                    ",
"                                    ########                                    ",
"                                    ########                                    ",
"                                    ########                                    ",
"                                    ########                                    ",
"                                    ########                                    ",
"                                    ########                                    ",
"                                    ########                                    ",
"                                    ########                                    ",
"                                    ########                                    ",
"                                    ########                                    ",
"                                    ########                                    ",
"                                    ########                                    ",
"                                    ########                                    ",
"                                    oooooooo                                    ",
"                                    oooooooo                                    ",
"                                    oooooooo                                    ",
"                                    oooooooo                                    "
};