/* XPM */
static char *wall[] = {
/* columns rows colors chars-per-pixel */
"80 80 4 1 ",
"1 c #C3C7C4",
"2 c #858685",
"3 c #414341",
"4 c #000000",

/* pixels */
"11111111111111111111222222222233333333333333311111111111111122222333331111122222",
"11111111111111111111222222222233333333333333311111111111111122222333331111122222",
"11111111111111111111222222222233333333333333311111111111111122222333331111122222",
"11111111111111111111222222222233333333333333311111111111111122222333331111122222",
"11111111111111111111222222222233333333333333311111111111111122222333331111122222",
"11111111112222222222444443333311111111113333322222222223333333333444442222222222",
"11111111112222222222444443333311111111113333322222222223333333333444442222222222",
"11111111112222222222444443333311111111113333322222222223333333333444442222222222",
"11111111112222222222444443333311111111113333322222222223333333333444442222222222",
"11111111112222222222444443333311111111113333322222222223333333333444442222222222",
"33333222222222244444333331111111111222224444444444222223333344444333333333322222",
"33333222222222244444333331111111111222224444444444222223333344444333333333322222",
"33333222222222244444333331111111111222224444444444222223333344444333333333322222",
"33333222222222244444333331111111111222224444444444222223333344444333333333322222",
"33333222222222244444333331111111111222224444444444222223333344444333333333322222",
"33333444444444433333111112222222222222224444433333444444444433333111111111133333",
"33333444444444433333111112222222222222224444433333444444444433333111111111133333",
"33333444444444433333111112222222222222224444433333444444444433333111111111133333",
"33333444444444433333111112222222222222224444433333444444444433333111111111133333",
"33333444444444433333111112222222222222224444433333444444444433333111111111133333",
"11111111113333333333111112222222222444443333311111111111111133333222222222233333",
"11111111113333333333111112222222222444443333311111111111111133333222222222233333",
"11111111113333333333111112222222222444443333311111111111111133333222222222233333",
"11111111113333333333111112222222222444443333311111111111111133333222222222233333",
"11111111113333333333111112222222222444443333311111111111111133333222222222233333",
"22222222222222233333222222222222222444441111111111222222222222222333334444444444",
"22222222222222233333222222222222222444441111111111222222222222222333334444444444",
"22222222222222233333222222222222222444441111111111222222222222222333334444444444",
"22222222222222233333222222222222222444441111111111222222222222222333334444444444",
"22222222222222233333222222222222222444441111111111222222222222222333334444444444",
"22222222222222233333333334444444444333333333322222222222222222222222223333333333",
"22222222222222233333333334444444444333333333322222222222222222222222223333333333",
"22222222222222233333333334444444444333333333322222222222222222222222223333333333",
"22222222222222233333333334444444444333333333322222222222222222222222223333333333",
"22222222222222233333333334444444444333333333322222222222222222222222223333333333",
"22222222224444433333111111111133333333333333333333444442222222222444443333311111",
"22222222224444433333111111111133333333333333333333444442222222222444443333311111",
"22222222224444433333111111111133333333333333333333444442222222222444443333311111",
"22222222224444433333111111111133333333333333333333444442222222222444443333311111",
"22222222224444433333111111111133333333333333333333444442222222222444443333311111",
"22222444443333311111111112222233333111111111122222333334444444444444441111111111",
"22222444443333311111111112222233333111111111122222333334444444444444441111111111",
"22222444443333311111111112222233333111111111122222333334444444444444441111111111",
"22222444443333311111111112222233333111111111122222333334444444444444441111111111",
"22222444443333311111111112222233333111111111122222333334444444444444441111111111",
"22222333331111111111222224444411111222221111122222222223333333333111112222222222",
"22222333331111111111222224444411111222221111122222222223333333333111112222222222",
"22222333331111111111222224444411111222221111122222222223333333333111112222222222",
"22222333331111111111222224444411111222221111122222222223333333333111112222222222",
"22222333331111111111222224444411111222221111122222222223333333333111112222222222",
"33333111112222222222222224444411111222222222222222222224444433333333332222222222",
"33333111112222222222222224444411111222222222222222222224444433333333332222222222",
"33333111112222222222222224444411111222222222222222222224444433333333332222222222",
"33333111112222222222222224444411111222222222222222222224444433333333332222222222",
"33333111112222222222222224444411111222222222222222222224444433333333332222222222",
"33333333332222222222222224444422222222222222222222444443333311111333333333344444",
"33333333332222222222222224444422222222222222222222444443333311111333333333344444",
"33333333332222222222222224444422222222222222222222444443333311111333333333344444",
"33333333332222222222222224444422222222222222222222444443333311111333333333344444",
"33333333332222222222222224444422222222222222222222444443333311111333333333344444",
"11111111114444444444444444444433333222224444444444111111111122222222223333333333",
"11111111114444444444444444444433333222224444444444111111111122222222223333333333",
"11111111114444444444444444444433333222224444444444111111111122222222223333333333",
"11111111114444444444444444444433333222224444444444111111111122222222223333333333",
"11111111114444444444444444444433333222224444444444111111111122222222223333333333",
"11111222223333311111111111111133333444443333311111111112222222222222222222244444",
"11111222223333311111111111111133333444443333311111111112222222222222222222244444",
"11111222223333311111111111111133333444443333311111111112222222222222222222244444",
"11111222223333311111111111111133333444443333311111111112222222222222222222244444",
"11111222223333311111111111111133333444443333311111111112222222222222222222244444",
"22222222223333311111222222222222222333333333333333222222222222222222224444444444",
"22222222223333311111222222222222222333333333333333222222222222222222224444444444",
"22222222223333311111222222222222222333333333333333222222222222222222224444444444",
"22222222223333311111222222222222222333333333333333222222222222222222224444444444",
"22222222223333311111222222222222222333333333333333222222222222222222224444444444",
"22222222222222233333444444444444444333331111122222333333333344444444443333333333",
"22222222222222233333444444444444444333331111122222333333333344444444443333333333",
"22222222222222233333444444444444444333331111122222333333333344444444443333333333",
"22222222222222233333444444444444444333331111122222333333333344444444443333333333",
"22222222222222233333444444444444444333331111122222333333333344444444443333333333"
};
