/* XPM */
static char *db431f35292c4454c10f42490e4fb62aQufYtUbhT5DBnbgd[] = {
/* columns rows colors chars-per-pixel */
"80 80 132 2 ",
"   c None",
".  c #162704",
"X  c #172803",
"o  c #1C2D05",
"O  c #1E3005",
"+  c #223207",
"@  c #243408",
"#  c #29390C",
"$  c #31470F",
"%  c #324810",
"&  c #3D4E12",
"*  c #445414",
"=  c #4B5614",
"-  c #475815",
";  c #4B5A14",
":  c #515E12",
">  c #546112",
",  c #5D6214",
"<  c #5C641A",
"1  c #5F6E1D",
"2  c #646616",
"3  c #666817",
"4  c #656718",
"5  c #646A1D",
"6  c #696B19",
"7  c #65711E",
"8  c #6E701A",
"9  c #73761C",
"0  c #76781D",
"q  c #485533",
"w  c #4B5835",
"e  c #6D5C23",
"r  c #705F25",
"t  c #6D6021",
"y  c #716125",
"u  c #786727",
"i  c #756B25",
"p  c #786F25",
"a  c #77672C",
"s  c #77682F",
"d  c #7B692A",
"f  c #667521",
"g  c #6A7822",
"h  c #757A22",
"j  c #7A7D24",
"k  c #857C25",
"l  c #738025",
"z  c #7D8025",
"x  c #81871F",
"c  c #818425",
"v  c #868C22",
"b  c #898E23",
"n  c #8E882E",
"m  c #8D9424",
"M  c #959A26",
"N  c #919529",
"B  c #95992A",
"V  c #9A9F2A",
"C  c #948F30",
"Z  c #989131",
"A  c #9FA132",
"S  c #A7A925",
"D  c #AAAC27",
"F  c #A2A72D",
"G  c #A3A82E",
"H  c #ABAD28",
"J  c #ADB028",
"K  c #B3B62D",
"L  c #B5B82E",
"P  c #A2A633",
"I  c #A5A835",
"U  c #AAAD35",
"Y  c #ACB037",
"T  c #ACB038",
"R  c #BABC31",
"E  c #B3B63A",
"W  c #B6B93B",
"Q  c #BABD3D",
"!  c #BCC032",
"~  c #BCC23B",
"^  c #C1C63E",
"/  c #C5C93A",
"(  c #CCD03E",
")  c #8F8355",
"_  c #BABC4F",
"`  c #BABD5C",
"'  c #978B60",
"]  c #8A927B",
"[  c #A19771",
"{  c #A59C77",
"}  c #A59D79",
"|  c #A99F7B",
" . c #A7A06C",
".. c #C1BF7B",
"X. c #CACE41",
"o. c #CDD242",
"O. c #D2D744",
"+. c #D5DA45",
"@. c #D9DE46",
"#. c #C0C355",
"$. c #D9DD5D",
"%. c #DCE147",
"&. c #E2E749",
"*. c #E4E94A",
"=. c #DBDF66",
"-. c #8F9681",
";. c #919983",
":. c #959C88",
">. c #B4AD8F",
",. c #A8AD9D",
"<. c #AAB0A0",
"1. c #C2BBA4",
"2. c #C0B9A3",
"3. c #C7C1AB",
"4. c #C7C1AB",
"5. c #D8D9A4",
"6. c #D8DBAB",
"7. c #C2C6BA",
"8. c #C4C8BD",
"9. c #CECAB8",
"0. c #DCDEB2",
"q. c #EBEDB7",
"w. c #D6D2C4",
"e. c #D8D3C4",
"r. c #D8D4C6",
"t. c #DEDACF",
"y. c #E0DDD5",
"u. c #E4E2D9",
"i. c #EFF1D3",
"p. c #F0F1D4",
"a. c #E1E3E0",
"s. c #EBECEA",
/* pixels */
"                                                                                                                                                                ",
"                                                                                                                                                                ",
"                                                                                                                                                                ",
"                                                                                                                                                                ",
"                                                                                                                                                                ",
"                                                                                                                                                                ",
"                                                                                                                                                                ",
"                                                                                                                                                                ",
"                                                                                                                                                                ",
"                                                                                                                                                                ",
"                                                                                                                                                                ",
"                                                                                                                                                                ",
"                                                                                                                                                                ",
"                                                                                                                                                                ",
"                                                                                                                                                                ",
"                                                                                                                                                                ",
"                                                                                                                                                                ",
"                                                                    r.r.                                                                                        ",
"                                                                  s s w.r.                                                                                      ",
"                                                                a a y r r.r.                                                                                    ",
"                                                                  u u y y w.7.                                                                                  ",
"                                      )                             k d @ @ 7.7.                                                                                ",
"                                    ' y u       #                     o O @ o w.7.                                                                              ",
"                                  u.y y y u   @ @ @                 y r O O O @ 7.w.                                                                            ",
"                                  t.t.y e y a @ @ @ @             y y y y o O @ @ 7.7.                                                                          ",
"                                    t.y.e e y y + @ @ @         @ O y y z z o o @ @                                                                             ",
"                            '         y._ e y y y O @ @ @     @ @ @ O z z z z + +                                                                               ",
"                          ' y y       W V V y y U E + @ o O o o @ @ @ o z z c z                                                                                 ",
"                          y y y e   W T T A A U U T W X o k z o o @ @ + o c z + @                                                                               ",
"                            t e e %.U U T T X.X.T T T W j z z z O o @ @ + X + @ @ @                                                                             ",
"                              e %.+.+.U U o.+.o.X.T T T T z z z z o o O + z c + @ @ @           7.                                                              ",
"                                +.+.+.+.+.O.+.+.O.O.T T T T z z z z o X z z z c + @ @ @     a.@ 7.w.                      # #         ;.                        ",
"                                  +.+.c c +.+.@.%.l l T T : , j z z j c c j k z c + @ @ @ s.o @ @ 8.8.                  # # @ @     @ @ :.                      ",
"              ' {         k         c c c j &.%.f f l h 2 2 4 2 c z % % c c z z z c + @ # z o o @ @ 8.8.    <.@       # # @ @ o o + @ @ @ ;.                    ",
"            ' y y {     a y y     s s j j h j f f f 8 A A 3 4 2 2 & * * & z z z z z c # z z z o o @ @ 8.8.<.@ @ @   # # @ @ o o c z + @ @ @                     ",
"            s y y a { u y y y a s s y y h h v v 7 f E T A A 2 2 j c & & - t z z z z j 2 z z z z O o @ @ ] @ @ @ + z # @ @ + o c z z j + @                       ",
"              s y y   1.y y y t y y y r y b b b v T T T T F A z z z z = 5 2 2 z z h 3 2 2 z j z z o o @ @ @ @ + j j j @ + + ; z j z c c                         ",
"                u       1.y y y y y y y - > v v t y T T T T 6 6 z z z z 5 2 3 2 j 7 3 3 2 z z z z z + @ @ @ @ 6 z j c c + ; - = z c z @ @                       ",
"                          1.y y r e e : > > : e r y y T T 4 3 6 6 z z z z 2 3 3 z 7 e 5 z z z z z < @ @ @ @ @ 5 5 c c j 2 ; ; * * z @ @ @ @                     ",
"                            1.y e e T E > > b b y y r t , 2 4 2 0 v z z z z 7 z z z 2 j z z z z < @ @ @ @ + @ @ 5 5 j 2 4 4 * ; ; 4 @ @ @ @ @       @ -.        ",
"                              2.e T T E T v v v v e e T T 2 2 9 v v v j z h > z z z x z j z z h g + @ @ @ + @ @ X 5 0 4 4 2 2 = 4 4 4 @ @ @ @ @   @ @ @ :.      ",
"                                6.T T T j j v v v v T T T T 9 v v v v v h > > : z v v m z j h g f g O @ @ % + X . E 0 h 4 2 2 U 4 4 4 U @ @ + o W + @ @ @ ,.    ",
"                                  6.T h j x c b v r y T T ^ +.v v v v v ~ : 1 , @.v v v v g 1 f f f + @ % % % X Q U T h 9 2 U T T 5 T T T @ o E E T o @ w       ",
"                                    p h j c h h r y y y X.o.+.+.v v m +.~ ~ , +.+.%.v v F +.1 1 f @ @ + % % % O W E T T 9 U T T U H T T T E E E T T T q         ",
"                          y y     u u i 0 h h %.@.t y n T +.+.+.O.m +.+.+.~ K +.+.+.@.F +.+.+.1 X @ @ @ O % @ @ @ E W U D U U U H H H U E o o T T T `           ",
"                        y y y y a u y y i 0 +.+.@.+.n U T T +.+.o.v +.+.+.H K K +.+./ S +.+.+.+.X X @ + O * @ @ @ o W S D D U P H H H H o o + @ T `             ",
"                      3.3.y y     a y r t N +.+.+.X.T U T T T o.z c v +.H H H K J / H H S +.+.+.+.X . + * * * @ o o +.S D H x I P H H H H + @ @ w               ",
"                        3.3.        a r 6 8 P +.^ T T T T T U H v v v D H H H H ! o.H H H +.+.+.+.&.X - * * * = o +.+.+.S m v x P P H H H H @ w                 ",
"                                      j z z 0 V T T T T T U H H H v D D H H H R +.( ( D +.O.+.+.&.&.  - - * * *   @.+.+.  m N v x L L H H H _                   ",
"                                    y y z z c v M T T T I e H H H y D H H H R +.+.+.( i.O.+.+.&.&.      - ; *       @.      m m @.@.L L H _                     ",
"                                  y y y y c v b v B T I y e e H y y y D H R +.+.+.+.  i.p.@.*.&.          ;                   *.*.+.+.L #.                      ",
"                                y y y t n T v v v v B t y y e J y y y y R +.+.+.@.      i.i.*.                                  *.*.+.=.                        ",
"                              y y y y n T T T v b m T C y y H H J y y k H +.+.+.          p.                                      *.$.                          ",
"                            | y y y  .0.T T T T m U T T C H H H J J k H H H +.                                                                                  ",
"                              | y >.  0.0.U T E +.T T T   6.H H H R +.H H H                                                                                     ",
"                                9.      0.0.T +.+.+.U       5.H R +.@.+.H                                                                                       ",
"                                          0.q.+.+.+.          ..+.+.+.@.                                                                                        ",
"                                            q.q.+.          4.y Z +.+.                                                                                          ",
"                                              q.          4.y y y Z                                                                                             ",
"                                                            a y y y {                                                                                           ",
"                                                              s y y y {                                                                                         ",
"                                                                s y y u [                                                                                       ",
"                                                                  a u u                                                                                         ",
"                                                                    u                                                                                           ",
"                                                                                                                                                                ",
"                                                                                                                                                                ",
"                                                                                                                                                                ",
"                                                                                                                                                                ",
"                                                                                                                                                                ",
"                                                                                                                                                                ",
"                                                                                                                                                                ",
"                                                                                                                                                                ",
"                                                                                                                                                                ",
"                                                                                                                                                                ",
"                                                                                                                                                                ",
"                                                                                                                                                                ",
"                                                                                                                                                                ",
"                                                                                                                                                                ",
"                                                                                                                                                                ",
"                                                                                                                                                                "
};